# xmcd
# 
# Track frame offsets:
#     182
#     17107
#     38432
#     55985
#     89907
#     115005
#     136005
#     146602
#     165540
#     188622
#     205212
#     223125
# 
# Disc length: 3206
# 
# Revision: 8
# Processed by: cddbd v1.5.2PL0 Copyright (c) Steve Scherf et al.
# Submitted via: fre:ac v1.0.31
# 
DISCID=a60c840c
DTITLE=Calvin Russel - Sounds from the fourth world
DYEAR=1995
DGENRE=Blues
TTITLE0=You're My Baby
TTITLE1=Last Night
TTITLE2=One Meat Ball
TTITLE3=Crossroads
TTITLE4=May Be Someday
TTITLE5=Rockin' The Republicans
TTITLE6=Baby I Love You
TTITLE7=Love Stealer
TTITLE8=You Don't Know
TTITLE9=Down Down Down
TTITLE10=One Meat Ball (acoustic)
TTITLE11=Stripe On The Nine Ball
EXTD=
EXTT0=
EXTT1=
EXTT2=
EXTT3=
EXTT4=
EXTT5=
EXTT6=
EXTT7=
EXTT8=
EXTT9=
EXTT10=
EXTT11=
PLAYORDER=
